<svg width="260" height="120" viewBox="0 0 260 120" fill="none" xmlns="http://www.w3.org/2000/svg">
<path fill-rule="evenodd" clip-rule="evenodd" d="M112.686 75.2202L112.472 75.2219C112.355 75.2228 112.235 75.2374 112.114 75.2677C109.974 75.8027 107.712 75.1367 106.203 73.5273L103.48 70.6231C100.509 67.4538 95.8638 66.499 91.8834 68.2394L91.5142 68.4008C90.8114 68.7081 90.6132 69.6118 91.1227 70.185L103.165 83.733C104.29 84.9988 105.865 85.775 107.555 85.896L109.555 86.0392C110.218 86.0867 110.846 86.007 111.424 85.8262L111.503 85.8015L111.585 85.7871C111.835 85.7426 112.086 85.6776 112.336 85.5909L164.944 67.3001C167.469 66.4222 168.804 63.6637 167.926 61.1387C167.048 58.6137 164.29 57.2785 161.765 58.1564L112.686 75.2202ZM161.339 56.9314C164.541 55.8183 168.038 57.5113 169.151 60.7128C170.264 63.9143 168.571 67.412 165.37 68.5251L112.761 86.8158C112.447 86.9253 112.129 87.0076 111.811 87.064C111.08 87.2927 110.288 87.392 109.462 87.3328L107.462 87.1895C105.435 87.0444 103.546 86.1132 102.196 84.5947L90.1534 71.0466C89.0584 69.8147 89.4844 67.8729 90.9946 67.2126L91.3638 67.0511C95.8473 65.0907 101.079 66.1662 104.426 69.7361L107.149 72.6402C108.336 73.9065 110.116 74.4305 111.8 74.0095C112.021 73.9541 112.243 73.9267 112.462 73.925L161.339 56.9314Z" fill="#0064D1"/>
<path d="M128.673 76.6469L144.919 71.3372L130.541 97.4423C128.573 101.017 124.816 103.237 120.735 103.237C120.435 103.237 120.221 102.946 120.311 102.66L128.307 77.0177C128.362 76.8422 128.498 76.704 128.673 76.6469Z" fill="#272939" stroke="#0064D1" stroke-width="1.5"/>
<path d="M128.76 68.6301L141.848 64.0771L120.718 56.4459C117.775 55.3827 114.539 55.4691 111.656 56.6876L111.258 56.8557C110.835 57.0347 110.788 57.6162 111.178 57.8603L128.272 68.5749C128.418 68.6664 128.597 68.6867 128.76 68.6301Z" stroke="#0064D1" stroke-width="1.5"/>
<path fill-rule="evenodd" clip-rule="evenodd" d="M40.5344 46.2773L40.3203 46.2789C40.1614 46.28 39.999 46.2999 39.8351 46.3409C37.3725 46.9565 34.7697 46.1902 33.0336 44.3383L29.7897 40.8782C26.1778 37.0255 20.5311 35.8649 15.6924 37.9806L15.2526 38.1729C14.2607 38.6066 13.9809 39.8819 14.7001 40.691L29.0478 56.8325C30.4314 58.389 32.3682 59.3434 34.4453 59.4922L36.8284 59.6629C37.6488 59.7217 38.4282 59.6231 39.1459 59.3989L39.2249 59.3742L39.3065 59.3598C39.6187 59.3045 39.9313 59.2236 40.2419 59.1156L102.921 37.3235C106.059 36.2325 107.718 32.8044 106.627 29.6666C105.536 26.5287 102.108 24.8694 98.9704 25.9604L40.5344 46.2773ZM98.5445 24.7354C102.359 23.4092 106.526 25.4263 107.852 29.2407C109.178 33.055 107.161 37.2223 103.347 38.5484L40.6678 60.3406C40.2918 60.4713 39.9124 60.5696 39.5326 60.6368C38.6616 60.9089 37.7196 61.027 36.7357 60.9565L34.3527 60.7858C31.9381 60.6128 29.6867 59.5034 28.0785 57.6941L13.7308 41.5526C12.4262 40.0849 12.9338 37.7714 14.733 36.9846L15.1729 36.7923C20.5147 34.4566 26.7484 35.7379 30.7359 39.9912L33.9797 43.4513C35.394 44.9599 37.5144 45.5842 39.5206 45.0827C39.7849 45.0166 40.0498 44.9839 40.3107 44.982L98.5445 24.7354Z" fill="white"/>
<path fill-rule="evenodd" clip-rule="evenodd" d="M74.1153 32.9682L59.6212 38.0103C59.5272 38.043 59.4235 38.0312 59.3392 37.9784L39.0837 25.2822C38.8588 25.1413 38.8857 24.8055 39.1302 24.7022L39.311 24.6258C42.7783 23.1601 46.671 23.0563 50.2116 24.335L74.1153 32.9682ZM60.0473 39.2352C59.5818 39.3971 59.068 39.339 58.6504 39.0773L38.3949 26.3811C37.2809 25.6829 37.4142 24.0195 38.6252 23.5076L38.806 23.4312C42.5741 21.8384 46.8044 21.7256 50.6521 23.1152L77.9967 32.9911L60.0473 39.2352Z" fill="white"/>
<path d="M58.2456 48.5935C58.4046 48.0921 58.7965 47.6986 59.2973 47.5377L79.2806 41.1145C79.9832 40.8886 80.5987 41.6409 80.2381 42.2849L62.6841 73.6313C60.0997 78.2464 55.2231 81.1047 49.9336 81.1047V81.1047C48.9452 81.1047 48.2418 80.1438 48.5406 79.2016L58.2456 48.5935Z" fill="#272939"/>
<path fill-rule="evenodd" clip-rule="evenodd" d="M78.5046 42.7261L59.6941 48.7724C59.593 48.8049 59.5139 48.8843 59.4818 48.9855L49.7768 79.5936C49.7432 79.6996 49.8224 79.8078 49.9336 79.8078C54.7536 79.8078 59.1975 77.2032 61.5525 72.9976L78.5046 42.7261ZM59.2973 47.5377C58.7965 47.6986 58.4046 48.0921 58.2456 48.5935L48.5406 79.2016C48.2418 80.1438 48.9452 81.1047 49.9336 81.1047C55.2231 81.1047 60.0997 78.2464 62.6841 73.6313L80.2381 42.2849C80.5987 41.6409 79.9832 40.8886 79.2806 41.1145L59.2973 47.5377Z" fill="white"/>
</svg>
