<svg width="260" height="120" viewBox="0 0 260 120" fill="none" xmlns="http://www.w3.org/2000/svg">
<rect opacity="0.2" x="163.58" y="36.9888" width="77.8726" height="61.0573" rx="4.25478" fill="#272939" stroke="white" stroke-width="2"/>
<rect x="157.274" y="28.6321" width="90.4841" height="61.0573" rx="4.25478" fill="#272939" stroke="#838491" stroke-width="2"/>
<rect x="5.93652" y="19.75" width="103.096" height="61.0573" rx="4.25478" stroke="#055CBE" stroke-width="2"/>
<rect x="150.968" y="20.2754" width="103.096" height="61.0573" rx="4.25478" fill="#272939" stroke="white" stroke-width="2"/>
<path d="M66.9429 70.7722L89.0129 90.7404H75.876L66.9429 101.25V70.7722Z" fill="#FF8766"/>
<path fill-rule="evenodd" clip-rule="evenodd" d="M133.114 44.4499L137.887 49.2229C138.18 49.5158 138.18 49.9906 137.887 50.2835L133.114 55.0565C132.822 55.3494 132.347 55.3494 132.054 55.0565C131.761 54.7636 131.761 54.2887 132.054 53.9958L135.546 50.5032H121.593V49.0032H135.546L132.054 45.5106C131.761 45.2177 131.761 44.7428 132.054 44.4499C132.347 44.157 132.822 44.157 133.114 44.4499Z" fill="white"/>
<path fill-rule="evenodd" clip-rule="evenodd" d="M218.064 34.3209C218.259 34.7172 218.387 35.1131 218.399 35.4718C218.481 37.7603 216.937 39.7262 215.107 40.3087C214.282 40.5711 213.392 40.3486 212.682 40.0415C212.428 39.9317 212.185 39.8057 211.96 39.6746C211.975 40.9642 211.488 42.0332 210.815 42.8629C209.952 43.9268 208.784 44.6047 207.959 44.9108C207.935 44.9195 207.911 44.9264 207.887 44.9317C206.595 45.211 205.351 44.679 204.377 44.0004C204.29 43.9399 204.204 43.8776 204.12 43.8141L208.261 53.7285L207.291 54.1335L203.047 43.9726C202.945 44.4067 202.799 44.8443 202.612 45.2637C201.994 46.6467 200.857 47.9645 199.093 48.3005C197.645 48.5764 196.447 47.9609 195.576 47.1568C195.162 46.7751 194.811 46.3409 194.524 45.9138C194.35 46.4237 194.09 46.9845 193.713 47.5066C193.388 47.9567 192.737 48.3648 192.024 48.6432C191.29 48.9293 190.397 49.1158 189.515 49.0492C188.627 48.9821 187.727 48.6541 187.048 47.8865C186.373 47.1224 185.976 45.9887 185.956 44.4246C185.917 41.2831 187.612 37.6088 190.499 34.5534C193.397 31.4867 197.544 28.99 202.502 28.2388C207.461 27.4874 211.391 28.6886 214.098 30.3602C215.449 31.1942 216.498 32.1473 217.22 33.0374C217.581 33.4823 217.865 33.9177 218.064 34.3209ZM213.546 31.2544C211.039 29.7062 207.359 28.5658 202.659 29.2779C197.958 29.9902 194.018 32.3597 191.263 35.2752C188.498 38.2019 186.973 41.6258 187.007 44.4116C187.024 45.8112 187.377 46.6716 187.836 47.1904C188.291 47.7058 188.909 47.9494 189.595 48.0012C190.286 48.0535 191.021 47.9063 191.642 47.6641C192.282 47.4142 192.71 47.0997 192.861 46.8913C193.549 45.9384 193.766 44.8039 193.787 44.3919C193.799 44.1458 193.981 43.9414 194.223 43.9001C194.466 43.8588 194.705 43.9917 194.798 44.2199C195.044 44.8242 195.561 45.7128 196.289 46.3847C197.011 47.0516 197.886 47.4606 198.896 47.2681C200.206 47.0187 201.118 46.0314 201.652 44.8349C202.194 43.6223 202.286 42.3293 202.078 41.6441C202.003 41.3974 202.118 41.1327 202.349 41.0192C202.581 40.9057 202.86 40.9769 203.009 41.1873C203.396 41.7332 204.112 42.5353 204.977 43.1381C205.84 43.7392 206.765 44.084 207.629 43.9119C208.315 43.6504 209.29 43.0744 209.998 42.2011C210.704 41.3303 211.142 40.1722 210.778 38.6893C210.724 38.4676 210.819 38.2361 211.013 38.1164C211.208 37.9968 211.457 38.0164 211.63 38.165C211.939 38.4292 212.487 38.812 213.1 39.0769C213.726 39.3479 214.325 39.4547 214.788 39.3073C216.177 38.8653 217.414 37.3188 217.349 35.5093C217.344 35.3559 217.282 35.1115 217.121 34.7852C216.964 34.4657 216.726 34.0961 216.404 33.6995C215.761 32.9066 214.802 32.0303 213.546 31.2544Z" fill="#FD606C"/>
<path fill-rule="evenodd" clip-rule="evenodd" d="M200.568 40.6568C195.857 42.1403 191.429 42.77 188.774 42.8941L188.725 41.8443C191.29 41.7244 195.629 41.1102 200.252 39.6544C204.879 38.1976 209.749 35.9113 213.417 32.4729L214.135 33.2396C210.31 36.8262 205.276 39.1744 200.568 40.6568Z" fill="#FD606C"/>
<path fill-rule="evenodd" clip-rule="evenodd" d="M206.598 59.2054L186.084 64.3338L192.927 67.0709C193.91 67.4641 194.995 67.5215 196.014 67.2341L216.408 61.482L221.115 48.3016C221.39 47.5327 220.89 46.7053 220.082 46.5898L212.528 45.5106C211.919 45.4236 211.333 45.7787 211.128 46.3591L206.598 59.2054ZM222.105 48.6551C222.603 47.2601 221.697 45.7589 220.231 45.5494L212.676 44.4702C211.571 44.3123 210.508 44.9567 210.137 46.0095L205.794 58.3229L184.432 63.6634C183.881 63.8012 183.83 64.564 184.357 64.7749L192.536 68.0467C193.734 68.526 195.057 68.5959 196.3 68.2456L217.215 62.3464L222.105 48.6551Z" fill="white"/>
<path fill-rule="evenodd" clip-rule="evenodd" d="M214.049 59.0147C213.499 58.9057 212.844 58.9959 212.131 59.0978C211.612 59.1719 211.156 59.4862 210.702 59.9577C210.478 60.1913 210.266 60.4511 210.053 60.7209C210 60.7878 209.947 60.8562 209.893 60.925C209.746 61.1145 209.595 61.3075 209.448 61.4834L203.023 71.9956L203.018 72.0043C202.79 72.3457 202.367 72.8315 201.805 73.2366C201.243 73.6418 200.503 73.9945 199.653 73.9945C198.085 73.9945 197.173 73.1421 196.866 72.5798L193.379 67.9301L194.328 67.4219L197.761 72.0208L197.782 72.0632C197.892 72.2834 198.456 72.9435 199.653 72.9435C200.209 72.9435 200.737 72.7108 201.19 72.3842C201.638 72.0612 201.973 71.674 202.138 71.4294L208.593 60.8669L208.619 60.836C208.76 60.6691 208.901 60.4886 209.053 60.2931C209.11 60.2211 209.167 60.147 209.227 60.0707C209.445 59.795 209.683 59.5017 209.945 59.2294C210.464 58.689 211.124 58.1801 211.982 58.0574C212.003 58.0545 212.023 58.0516 212.044 58.0486C212.699 57.9548 213.516 57.8377 214.253 57.9838C214.647 58.0617 215.037 58.217 215.379 58.5001C215.723 58.7842 215.991 59.1744 216.173 59.6794C216.354 60.1796 216.571 60.9126 216.807 61.7448L220.638 60.5954C221.802 60.246 222.945 61.1991 222.811 62.4075L222.424 65.8896C222.411 66.8996 221.76 67.9792 220.378 68.6703C219.543 69.0875 218.788 68.7815 218.287 68.3982C217.797 68.0232 217.457 67.516 217.331 67.2646L217.314 67.2312L217.303 67.1957C216.907 66.0101 216.502 64.5585 216.134 63.2388L216.118 63.1813C215.752 61.8713 215.429 60.7127 215.185 60.0369C215.057 59.6821 214.888 59.4577 214.709 59.3098C214.529 59.1609 214.311 59.0665 214.049 59.0147ZM217.09 62.7569C217.099 62.7892 217.108 62.8216 217.117 62.854L217.146 62.9566C217.511 64.2674 217.905 65.6748 218.286 66.8236C218.372 66.9799 218.608 67.3206 218.925 67.5633C219.253 67.8142 219.572 67.8984 219.908 67.7303C221.024 67.1721 221.374 66.401 221.374 65.8587V65.8296L221.767 62.2914C221.818 61.8317 221.383 61.4691 220.94 61.602L217.09 62.7569Z" fill="white"/>
<path fill-rule="evenodd" clip-rule="evenodd" d="M202.18 55.6994C201.356 55.8642 200.464 56.1793 199.877 56.4553C199.747 56.5164 199.509 56.7248 199.183 57.1277C198.875 57.509 198.536 58.0011 198.197 58.5396C197.519 59.6151 196.861 60.8359 196.464 61.6299L195.524 61.1599C195.932 60.3441 196.607 59.0915 197.308 57.9791C197.658 57.4236 198.021 56.893 198.366 56.4666C198.694 56.0619 199.062 55.6775 199.429 55.5044C200.087 55.1951 201.06 54.8516 201.974 54.6688C202.431 54.5775 202.894 54.5217 203.308 54.539C203.703 54.5555 204.148 54.6423 204.469 54.9307C204.673 55.1152 204.877 55.4015 205.06 55.6969C205.252 56.0039 205.449 56.3655 205.637 56.7346C206.014 57.4733 206.367 58.2692 206.578 58.7787L205.607 59.1813C205.404 58.6908 205.062 57.9207 204.701 57.2118C204.52 56.8572 204.338 56.5245 204.168 56.2523C203.992 55.9685 203.853 55.7908 203.765 55.7119C203.72 55.671 203.58 55.6023 203.264 55.5891C202.966 55.5766 202.593 55.6169 202.18 55.6994Z" fill="white"/>
<path fill-rule="evenodd" clip-rule="evenodd" d="M186.959 69.9644L184.041 64.4204L184.971 63.9309L187.909 69.5132L187.918 69.5349C187.916 69.5307 187.917 69.5316 187.921 69.5364C187.957 69.5807 188.262 69.9512 189.349 69.6676C190.894 69.2647 191.805 68.2114 191.97 67.4968L192.994 67.7331C192.72 68.9211 191.436 70.2094 189.615 70.6846C188.148 71.0672 187.235 70.5813 186.959 69.9644Z" fill="white"/>
<path fill-rule="evenodd" clip-rule="evenodd" d="M44.5005 51.0428L44.3355 51.044C44.2587 51.0446 44.1799 51.0542 44.1 51.0741C42.5528 51.4609 40.9176 50.9795 39.8269 49.816L37.8943 47.7547C35.8083 45.5296 32.5472 44.8593 29.7527 46.0812L29.4907 46.1958C29.0414 46.3923 28.9146 46.97 29.2404 47.3366L37.7882 56.953C38.573 57.836 39.6717 58.3774 40.85 58.4618L42.2698 58.5635C42.7301 58.5965 43.1662 58.5411 43.567 58.4158L43.628 58.3967L43.691 58.3855C43.865 58.3547 44.0394 58.3096 44.2129 58.2493L81.5544 45.2665C83.3052 44.6578 84.231 42.745 83.6223 40.9942C83.0136 39.2435 81.1009 38.3176 79.3501 38.9263L44.5005 51.0428ZM29.3521 45.165L29.0901 45.2795C28.0182 45.7482 27.7157 47.1266 28.493 48.001L37.0407 57.6174C37.9988 58.6952 39.3401 59.3562 40.7786 59.4592L42.1983 59.5609C42.7848 59.6029 43.3462 59.5325 43.8654 59.3702C44.0915 59.3302 44.3174 59.2716 44.5413 59.1938L81.8828 46.211C84.1552 45.4209 85.3569 42.9383 84.5668 40.6658C83.7768 38.3934 81.2941 37.1917 79.0217 37.9818L44.328 50.044C44.1726 50.0452 44.0149 50.0646 43.8574 50.104C42.6623 50.4028 41.399 50.0309 40.5564 49.1321L38.6239 47.0707C36.2483 44.5368 32.5345 43.7735 29.3521 45.165Z" fill="white"/>
<path fill-rule="evenodd" clip-rule="evenodd" d="M55.7721 45.6705L43.7697 38.1474L43.8209 38.1258C45.8339 37.2749 48.0938 37.2146 50.1493 37.957L63.7868 42.8824L55.7721 45.6705ZM56.0862 46.62C55.8089 46.7165 55.5028 46.6819 55.254 46.5259L43.1866 38.9621C42.5229 38.5461 42.6024 37.5552 43.3238 37.2502L43.4316 37.2047C45.6764 36.2558 48.1967 36.1885 50.4889 37.0164L66.7796 42.9001L56.0862 46.62Z" fill="white"/>
<path d="M55.0126 52.1954C55.1073 51.8967 55.3408 51.6623 55.6392 51.5664L67.5444 47.7397C67.963 47.6052 68.3296 48.0534 68.1148 48.437L57.6569 67.1119C56.1172 69.8613 53.2119 71.5642 50.0607 71.5642V71.5642C49.4718 71.5642 49.0528 70.9917 49.2308 70.4304L55.0126 52.1954Z" fill="#272939"/>
<path fill-rule="evenodd" clip-rule="evenodd" d="M55.9609 52.5134L50.2381 70.5621C52.9586 70.4997 55.4505 69.0052 56.7844 66.6232L66.6012 49.0933L55.9609 52.5134ZM55.6392 51.5664C55.3408 51.6623 55.1073 51.8967 55.0126 52.1954L49.2308 70.4304C49.0528 70.9917 49.4718 71.5642 50.0607 71.5642C53.2119 71.5642 56.1172 69.8613 57.6569 67.1119L68.1148 48.437C68.3296 48.0534 67.963 47.6052 67.5444 47.7397L55.6392 51.5664Z" fill="white"/>
</svg>
